PathFileType	4	(X/Y/Z)	C:/Users/opensim2020/Desktop/walking_exp_matlab/subject03_walking10_straight_01.trc																																																																																																																																					
DataRate	CameraRate	NumFrames	NumMarkers	Units	OrigDataRate	OrigDataStartFrame	OrigNumFrames																																																																																																																																	
100	100	4	45	mm	100	897	477																																																																																																																																	
Frame#	Time	LFHD			RFHD			LBHD			RBHD			C7			T10			CLAV			STRN			RBAK			LSHO			LUPA			LELB			LFRM			LWRA			LWRB			LFIN			RSHO			RUPA			RELB			RFRM			RWRA			RWRB			RFIN			LASI			RASI			LPSI			RPSI			LTHI			LKNE			LTIB			LANK			LHEE			LTOE			RTHI			RKNE			RTIB			RANK			RHEE			RTOE			*39			*40			*41			*42			*43			*44		
		X1	Y1	Z1	X2	Y2	Z2	X3	Y3	Z3	X4	Y4	Z4	X5	Y5	Z5	X6	Y6	Z6	X7	Y7	Z7	X8	Y8	Z8	X9	Y9	Z9	X10	Y10	Z10	X11	Y11	Z11	X12	Y12	Z12	X13	Y13	Z13	X14	Y14	Z14	X15	Y15	Z15	X16	Y16	Z16	X17	Y17	Z17	X18	Y18	Z18	X19	Y19	Z19	X20	Y20	Z20	X21	Y21	Z21	X22	Y22	Z22	X23	Y23	Z23	X24	Y24	Z24	X25	Y25	Z25	X26	Y26	Z26	X27	Y27	Z27	X28	Y28	Z28	X29	Y29	Z29	X30	Y30	Z30	X31	Y31	Z31	X32	Y32	Z32	X33	Y33	Z33	X34	Y34	Z34	X35	Y35	Z35	X36	Y36	Z36	X37	Y37	Z37	X38	Y38	Z38	X39	Y39	Z39	X40	Y40	Z40	X41	Y41	Z41	X42	Y42	Z42	X43	Y43	Z43	X44	Y44	Z44	X45	Y45	Z45
																																																																																																																																								
239	2.38	-108.40573	1612.0719	1385.69653	-114.43541	1617.49194	1518.93005	-238.53166	1574.06445	1385.82837	-239.429	1579.15283	1517.03357	-275.1113	1414.09705	1454.71936	-317.60657	1101.93494	1457.99072	-156.37125	1334.76306	1444.24561	-117.85378	1168.37878	1437.33228	-322.16351	1241.13098	1558.85315	-216.18243	1372.5741	1292.50281	-246.76868	1174.94043	1227.32019	-248.2589	1052.02429	1214.72034	-205.53119	930.16321	1208.15222	-155.6071	821.35065	1231.77832	-195.60773	817.08875	1193.05103	-159.47603	740.81494	1197.2572	-184.1469	1359.79297	1606.44434	-143.7742	1142.2533	1677.76086	-102.95148	1036.91272	1686.02087	-50.90689	910.44342	1677.77637	-1.88235	828.82581	1631.63745	-23.59004	813.78595	1678.79626	16.917	753.12897	1661.09277	-161.19528	934.43365	1332.96191	-150.92937	934.1778	1569.09094	-322.39398	954.26947	1386.61157	-313.63837	969.4201	1536.30286	-157.19635	634.64581	1283.42456	-90.63523	471.36896	1328.18652	-85.66951	279.59982	1326.92053	-34.04158	73.9333	1360.37	-62.94156	33.91084	1402.47266	118.85131	63.88621	1371.87708	-237.41344	643.81598	1604.7998	-253.37196	465.01096	1566.99878	-332.81598	288.68637	1566.09998	-394.88303	81.37936	1511.26965	-440.87567	53.62988	1458.67627	-256.29608	36.81963	1499.79883	NaN	NaN	NaN	NaN	NaN	NaN	NaN	NaN	NaN	NaN	NaN	NaN	NaN	NaN	NaN	NaN	NaN	NaN
240	2.39	-101.72682	1611.37769	1384.87878	-107.85453	1616.83875	1518.12097	-231.76172	1573.1134	1384.97632	-232.80247	1578.3573	1516.18018	-268.20807	1413.31946	1453.81433	-310.7085	1101.17871	1456.89038	-149.4684	1333.90002	1443.71179	-110.64786	1167.81116	1437.11084	-315.89297	1240.46826	1557.95447	-208.79784	1371.5603	1291.72571	-239.4669	1173.64636	1227.18103	-241.03484	1050.60522	1215.04309	-199.15538	928.4549	1208.7561	-149.03319	819.98901	1232.12036	-190.05551	815.21307	1193.99597	-154.44492	738.63025	1198.50317	-177.68019	1359.01318	1605.797	-137.69958	1141.26233	1676.88916	-96.95211	1035.85303	1684.94775	-44.81384	909.43524	1676.19434	4.20049	827.9469	1629.60449	-17.46025	812.83344	1676.79932	23.13367	752.29761	1658.74048	-153.97479	933.37988	1332.42224	-144.53212	933.39301	1568.67542	-315.48349	953.56396	1385.55029	-307.2196	968.76965	1535.23816	-151.41628	633.052	1283.97205	-85.1128	470.10443	1329.57166	-77.06675	279.05716	1327.62793	-21.97293	74.3801	1359.85925	-49.64243	33.45879	1402.1178	131.59372	66.48396	1371.23889	-231.97725	643.34576	1604.28418	-248.72443	464.49246	1566.87146	-330.0303	288.87372	1566.0481	-394.45914	82.13189	1511.43494	-440.67175	54.8464	1458.80188	-256.16116	36.76263	1499.88147	NaN	NaN	NaN	NaN	NaN	NaN	NaN	NaN	NaN	NaN	NaN	NaN	NaN	NaN	NaN	NaN	NaN	NaN
241	2.4	-95.08172	1610.59692	1383.96533	-101.20061	1616.27466	1517.2738	-225.0097	1572.22046	1384.09753	-226.10626	1577.55676	1515.26355	-261.24619	1412.51807	1452.81226	-303.79544	1100.46301	1455.68896	-142.44264	1333.23645	1443.11658	-103.60571	1167.03772	1436.67859	-308.87662	1239.573	1556.64819	-201.3578	1370.59546	1290.83801	-231.94431	1172.52368	1227.02124	-233.83307	1049.31775	1215.35718	-192.6701	926.70245	1209.28711	-144.35123	816.94946	1233.67871	-184.55594	813.3623	1194.90649	-149.44394	736.43707	1199.64819	-171.11835	1358.26648	1605.1554	-131.64034	1140.30835	1675.97461	-91.04118	1034.84009	1683.82886	-38.90441	908.43884	1674.62573	10.20883	827.25079	1627.77051	-11.4516	811.84637	1674.8374	29.0717	751.396	1656.51733	-146.68425	932.39893	1331.89746	-138.06158	932.64874	1568.18164	-308.35751	953.08221	1384.354	-300.74057	968.14246	1534.05518	-145.42891	631.61401	1284.75439	-79.21446	468.77432	1330.69922	-68.60709	278.48129	1327.95264	-10.8043	74.50299	1359.64551	-38.08843	32.96198	1401.54138	143.00847	68.57763	1370.90747	-226.49763	642.8595	1603.85754	-244.02806	464.10403	1566.81592	-327.18655	289.13965	1566.06897	-393.91019	82.97626	1511.63245	-440.42712	56.14418	1458.97473	-256.01166	36.68134	1499.96082	NaN	NaN	NaN	NaN	NaN	NaN	NaN	NaN	NaN	NaN	NaN	NaN	NaN	NaN	NaN	NaN	NaN	NaN
242	2.41	-88.32275	1609.96375	1383.08618	-94.48735	1615.74353	1516.32666	-218.23491	1571.37903	1383.18054	-219.37813	1576.8728	1514.39966	-254.29047	1411.78638	1451.76538	-296.74872	1099.74854	1454.42456	-135.35931	1332.55042	1442.37256	-96.41788	1166.39429	1436.17761	-302.10672	1238.86938	1555.42761	-193.89047	1369.76599	1289.94983	-224.40396	1171.45068	1226.74487	-226.12102	1048.12146	1215.49097	-185.94746	925.17743	1209.76099	-138.65558	815.00452	1234.32617	-178.90593	811.65637	1195.59827	-144.6566	734.27826	1200.71899	-164.55013	1357.60242	1604.38049	-125.55598	1139.44006	1674.99548	-85.14268	1033.8418	1682.69995	-33.07989	907.45294	1673.15125	16.00286	826.32324	1626.01331	-5.66992	810.84045	1673.04211	34.88109	750.41516	1654.48657	-139.16327	931.49335	1331.323	-131.53699	932.02448	1567.67651	-300.96448	952.48059	1383.09216	-293.95764	967.50317	1532.79639	-139.19087	630.34308	1285.60291	-73.08119	467.67093	1331.68311	-60.51305	277.97498	1327.9668	-1.1787	74.57325	1359.52271	-28.01224	32.57875	1401.26843	152.87965	69.83066	1371.1261	-221.01518	642.4588	1603.50452	-239.23537	463.67981	1566.7937	-324.33109	289.427	1566.09631	-393.30103	83.87936	1511.83057	-440.14105	57.60022	1459.25708	-255.82527	36.6135	1500.09131	-172.66864	1673.70618	1430.60767	NaN	NaN	NaN	NaN	NaN	NaN	NaN	NaN	NaN	NaN	NaN	NaN	NaN	NaN	NaN
